<svg width="512" height="512" viewBox="0 0 512 512" fill="none" xmlns="http://www.w3.org/2000/svg">
<path fill-rule="evenodd" clip-rule="evenodd" d="M389.763 181.841C392.359 175.544 400.92 150.116 387.312 115.68L389.754 108.062L393.361 109.218L394.753 112.74C407.139 144.086 402.478 168.748 398.882 180.109C414.284 198.461 423.493 221.441 423.493 248.945C423.493 298.706 408.248 330.505 384.426 350.443C364.902 366.784 340.474 374.406 316.502 378.312C322.409 388.26 326.296 401.745 326.296 418.595C326.296 435.343 326.223 450.454 326.151 462.403C326.126 466.427 326.102 470.084 326.08 473.321L326.08 473.376L326.08 473.391C326.037 479.76 326.006 484.498 326.006 487.202C326.006 488.917 326.603 490.13 327.234 490.706C327.598 491.038 329.008 492.138 333.179 491.428C429.012 459.234 498 368.682 498 262.002C498 128.345 389.65 20 256.002 20C122.366 20 14 128.346 14 262.002C14 368.704 83.0594 459.281 178.93 491.449C182.967 492.093 184.394 491.02 184.802 490.648C185.466 490.042 186.048 488.829 186.048 487.202C186.048 484.488 186 478.961 185.938 471.761V471.76V471.758C185.884 465.584 185.82 458.181 185.766 450.266C154.56 455.044 133.914 447.871 120.716 437.981C113.599 432.648 108.956 426.749 106.074 422.13C104.632 419.819 103.623 417.815 102.956 416.337C102.622 415.598 102.373 414.987 102.198 414.533C102.111 414.305 102.041 414.117 101.989 413.97L101.978 413.94C96.7077 400.605 90.4059 392.428 85.6734 387.682C83.2881 385.29 81.2735 383.743 79.946 382.835C79.2817 382.381 78.7881 382.086 78.505 381.926C78.4623 381.901 78.4245 381.88 78.3915 381.862C78.3257 381.826 78.2794 381.801 78.2539 381.788L77.7409 381.548L77.2066 381.182C71.468 377.256 66.9289 373.245 65.0444 368.754C63.9357 366.111 63.5914 362.905 64.9614 359.759C66.2234 356.859 68.4524 355.157 70.1106 354.212C73.2548 352.419 76.9984 351.853 79.1016 351.622C80.3125 351.489 81.3824 351.43 82.1522 351.403C82.5408 351.389 82.8621 351.384 83.0977 351.382C83.1968 351.381 83.2812 351.381 83.3495 351.381L83.3868 351.381L83.4398 351.381L83.4803 351.382L83.5136 351.382L83.5269 351.382L83.5326 351.382C83.5352 351.382 83.5378 351.382 83.4332 359.382C83.4332 359.382 59.0408 359.063 81.7234 374.579C81.7234 374.579 98.1093 382.263 109.482 411.16C109.482 411.16 123.021 452.322 185.716 442.176C188.296 441.759 190.96 441.254 193.709 440.657C193.723 443.41 193.739 446.142 193.757 448.824C193.812 457.206 193.88 465.105 193.937 471.646L193.937 471.652C194 478.901 194.048 484.481 194.048 487.202C194.048 493.805 189.461 501.543 176.967 499.228C77.6332 466.171 6 372.46 6 262.002C6 123.927 117.948 12 256.002 12C394.069 12 506 123.927 506 262.002C506 372.422 434.458 466.101 335.178 499.195C322.506 501.65 318.006 493.855 318.006 487.202C318.006 484.471 318.038 479.685 318.08 473.288C318.166 460.394 318.296 440.953 318.296 418.595C318.296 401.137 313.82 388.223 307.808 379.578C305.788 376.673 303.594 374.25 301.338 372.298C304.654 371.929 307.98 371.508 311.303 371.02C363.767 363.325 415.493 339.247 415.493 248.945C415.493 221.65 405.793 199.348 389.763 181.841ZM124.659 115.68C122.22 108.061 122.228 108.059 122.236 108.056L122.252 108.051L122.285 108.041C122.308 108.033 122.333 108.026 122.359 108.018C122.41 108.002 122.467 107.986 122.529 107.968C122.654 107.932 122.8 107.893 122.968 107.851C123.303 107.768 123.724 107.674 124.232 107.582C125.249 107.399 126.608 107.223 128.319 107.144C131.746 106.987 136.54 107.222 142.776 108.536C154.712 111.05 171.865 117.499 194.854 132.64C214.498 127.535 235.32 124.987 255.966 124.894L256.002 124.894L256.038 124.894C276.686 124.987 297.523 127.536 317.2 132.64C340.16 117.501 357.292 111.051 369.215 108.536C375.444 107.222 380.234 106.987 383.658 107.144C385.368 107.223 386.726 107.399 387.742 107.583C388.25 107.674 388.671 107.768 389.006 107.852C389.174 107.894 389.32 107.933 389.444 107.969L389.506 107.986L389.537 107.996C389.565 108.004 389.591 108.011 389.615 108.019C389.641 108.027 389.666 108.034 389.689 108.041L389.722 108.052L389.738 108.057C389.746 108.06 389.754 108.062 387.312 115.68C387.312 115.68 366.348 108.961 318.631 141.307C298.652 135.767 277.248 132.989 256.002 132.894C234.756 132.989 213.369 135.767 193.427 141.307C145.652 108.961 124.659 115.68 124.659 115.68ZM124.659 115.68L122.22 108.061L118.607 109.217L117.216 112.746C104.859 144.094 109.524 168.756 113.119 180.114C97.753 198.454 88.4782 221.428 88.4782 248.945C88.4782 298.594 103.695 330.398 127.454 350.394C146.957 366.807 171.366 374.516 195.316 378.485C191.789 384.474 188.999 391.739 187.347 400.232C180.701 402.753 171.451 405.152 161.856 404.295C150.771 403.305 138.507 397.943 128.701 381.172L128.677 381.13C128.635 381.055 128.579 380.957 128.509 380.839C128.371 380.602 128.178 380.279 127.932 379.883C127.44 379.092 126.729 378.002 125.802 376.708C123.956 374.13 121.209 370.686 117.566 367.169C110.334 360.187 99.0765 352.461 83.9939 351.401L83.7661 351.385L83.5378 351.382L83.4332 359.382C108.538 361.145 121.757 385.144 121.757 385.144C144.054 423.364 180.241 412.315 194.508 405.927C196.05 394.823 199.592 386.141 203.977 379.77C205.973 376.871 208.144 374.45 210.38 372.497C207.083 372.121 203.775 371.693 200.471 371.198C148.125 363.367 96.4782 339.05 96.4782 248.945C96.4782 221.65 106.244 199.348 122.237 181.841C119.641 175.544 111.084 150.116 124.659 115.68ZM78.2399 381.781C78.2261 381.774 78.2274 381.774 78.2431 381.783L78.2399 381.781ZM184.057 418.353C184.426 420.348 187.112 421.59 190.014 421.06C192.966 420.51 195.032 418.444 194.676 416.432C194.299 414.387 191.654 413.178 188.698 413.691C185.8 414.225 183.697 416.291 184.057 418.353ZM174.06 417.222C174.131 419.284 171.73 420.993 168.757 421.031C165.768 421.097 163.35 419.429 163.317 417.4C163.317 415.318 165.665 413.624 168.654 413.575C171.626 413.517 174.06 415.173 174.06 417.222ZM146.828 416.91C149.66 417.742 152.471 416.852 153.075 414.894C153.663 412.902 151.808 410.625 148.985 409.773C146.133 408.882 143.309 409.81 142.721 411.78C142.15 413.759 144.001 416.053 146.828 416.91ZM134.635 409.405C133.265 410.916 130.346 410.51 128.21 408.448C126.024 406.432 125.416 403.571 126.79 402.06C128.177 400.545 131.112 400.972 133.265 403.017C135.434 405.029 136.097 407.91 134.635 409.405ZM114.783 390.988C116.331 393.211 118.836 394.209 120.368 393.145C121.933 392.056 121.933 389.39 120.405 387.13C118.836 384.923 116.368 383.963 114.816 385.031C113.251 386.099 113.251 388.765 114.783 390.988ZM111.931 379.106C110.739 380.211 108.408 379.698 106.827 377.951C105.191 376.208 104.885 373.877 106.094 372.755C107.323 371.65 109.584 372.167 111.223 373.91C112.859 375.674 113.177 377.988 111.931 379.106ZM95.3491 368.895C97.1292 369.748 99.0833 369.375 99.6339 368.133C100.263 366.887 99.2282 365.177 97.4108 364.362C95.6016 363.505 93.6434 363.861 93.1052 365.14C92.5174 366.386 93.5358 368.079 95.3491 368.895Z" fill="#9B9B9B"/>
</svg>
